<svg width="50" height="50" viewBox="0 0 50 50" fill="none" xmlns="http://www.w3.org/2000/svg">
<rect width="50" height="50" fill="#121212"/>
<path d="M25 15C19.4861 15 15 19.4861 15 25C15 26.6377 15.4314 28.1684 16.1309 29.5332L15.0469 33.4141C14.7944 34.3158 15.686 35.2073 16.5879 34.9551L20.4717 33.8711C21.8354 34.5691 23.3639 35 25 35C30.5139 35 35 30.5139 35 25C35 19.4861 30.5139 15 25 15ZM25 16.5C29.7031 16.5 33.5 20.2969 33.5 25C33.5 29.7031 29.7031 33.5 25 33.5C23.4992 33.5 22.0953 33.1097 20.8711 32.4277C20.6985 32.3316 20.495 32.3073 20.3047 32.3604L16.6113 33.3906L17.6426 29.6992C17.6959 29.5086 17.6716 29.3047 17.5752 29.1318C16.8918 27.9067 16.5 26.5023 16.5 25C16.5 20.2969 20.2969 16.5 25 16.5ZM22 21.501C21.4696 21.501 20.9609 21.7117 20.5858 22.0868C20.2107 22.4618 20 22.9705 20 23.501C20 24.0314 20.2107 24.5401 20.5858 24.9152C20.9609 25.2903 21.4696 25.501 22 25.501C22.0587 25.5006 22.1173 25.4977 22.1758 25.4922C21.9376 26.2586 21.5301 27.1036 20.7998 27.6514C20.7181 27.7094 20.6488 27.7831 20.5961 27.8683C20.5434 27.9535 20.5082 28.0484 20.4928 28.1474C20.4774 28.2464 20.4819 28.3475 20.5062 28.4447C20.5304 28.5419 20.5739 28.6333 20.6341 28.7134C20.6942 28.7935 20.7698 28.8608 20.8564 28.9112C20.943 28.9616 21.0388 28.9942 21.1382 29.007C21.2376 29.0198 21.3385 29.0125 21.435 28.9857C21.5315 28.9588 21.6217 28.9129 21.7002 28.8506C24.0842 27.0626 24 23.751 24 23.751C24.0002 23.718 23.9983 23.6851 23.9941 23.6523C24.015 23.3777 23.9789 23.1018 23.8881 22.8418C23.7974 22.5818 23.6539 22.3433 23.4667 22.1414C23.2795 21.9394 23.0526 21.7783 22.8002 21.6681C22.5478 21.5579 22.2754 21.501 22 21.501ZM28 21.501C27.4696 21.501 26.9609 21.7117 26.5858 22.0868C26.2107 22.4618 26 22.9705 26 23.501C26 24.0314 26.2107 24.5401 26.5858 24.9152C26.9609 25.2903 27.4696 25.501 28 25.501C28.0587 25.5006 28.1173 25.4977 28.1758 25.4922C27.9376 26.2586 27.5301 27.1036 26.7998 27.6514C26.7181 27.7094 26.6488 27.7831 26.5961 27.8683C26.5434 27.9535 26.5082 28.0484 26.4928 28.1474C26.4774 28.2464 26.4819 28.3475 26.5062 28.4447C26.5304 28.5419 26.5739 28.6333 26.6341 28.7134C26.6942 28.7935 26.7698 28.8608 26.8564 28.9112C26.943 28.9616 27.0388 28.9942 27.1382 29.007C27.2376 29.0198 27.3385 29.0125 27.435 28.9857C27.5315 28.9588 27.6217 28.9129 27.7002 28.8506C30.0842 27.0626 30 23.751 30 23.751C30.0002 23.718 29.9983 23.6851 29.9941 23.6523C30.015 23.3777 29.9789 23.1018 29.8881 22.8418C29.7974 22.5818 29.6539 22.3433 29.4667 22.1414C29.2795 21.9394 29.0526 21.7783 28.8002 21.6681C28.5478 21.5579 28.2754 21.501 28 21.501Z" fill="white"/>
</svg>
